{"title":"Portrait in Black 1960 DVDRip Eng Subs Lana Turner Anthony Quinn","uid":6533326,"size":1422681232,"categoryP":"video","categoryS":"movies","magnet":"?xt=urn:btih:f075e5dcda0a6c30ee6b8f692f64b78873840e8e&amp;dn=Portrait+in+Black+1960+DVDRip+Eng+Subs+Lana+Turner+Anthony+Quinn&amp;tr=udp%3A%2F%2Ftracker.openbittorrent.com%3A80&amp;tr=udp%3A%2F%2Fopen.demonii.com%3A1337&amp;tr=udp%3A%2F%2Ftracker.coppersurfer.tk%3A6969&amp;tr=udp%3A%2F%2Fexodus.desync.com%3A6969","seeders":0,"leechers":4,"uploader":"CrowTR","files":1,"time":1310425747,"description":"Lana Turner and Anthony Quinn are lovers who murder Lana's cruel, but wealthy husband, played by Lloyd Nolan. Since Quinn is her husband's physician, the murder is easily committed, but blackmail, guilt and suspicion are the unanticipated results.\n &lt;a href=&quot;\nhttp://www.imdb.com/title/tt0054197/&quot; rel=&quot;nofollow&quot; target=&quot;_NEW&quot;&gt;\nhttp://www.imdb.com/title/tt0054197/&lt;/a&gt;\n\nFormat                           : MPEG-4\nFormat profile                   : Base Media / Version 2\nCodec ID                         : mp42\nFile size                        : 1.32 GiB\nDuration                         : 1h 52mn\nOverall bit rate                 : 1 683 Kbps\nEncoded date                     : UTC 2011-07-11 19:49:51\nTagged date                      : UTC 2011-07-11 21:03:30\n\nVideo\nID                               : 1\nFormat                           : MPEG-4 Visual\nFormat profile                   : AdvancedSimple@L5\nFormat settings, BVOP            : Yes\nFormat settings, QPel            : No\nFormat settings, GMC             : No warppoints\nFormat settings, Matrix          : Default (H.263)\nCodec ID                         : 20\nDuration                         : 1h 52mn\nBit rate mode                    : Variable\nBit rate                         : 1 586 Kbps\nMaximum bit rate                 : 4 036 Kbps\nWidth                            : 720 pixels\nHeight                           : 368 pixels\nDisplay aspect ratio             : 1.957\nFrame rate mode                  : Constant\nFrame rate                       : 23.976 fps\nResolution                       : 24 bits\nColorimetry                      : 4:2:0\nScan type                        : Progressive\nBits/(Pixel*Frame)               : 0.250\nStream size                      : 1.25 GiB (94%)\nWriting library                  : em4v 4.1.6.5\nLanguage                         : English\nEncoded date                     : UTC 2011-07-11 19:49:51\nTagged date                      : UTC 2011-07-11 21:03:30\n\nAudio\nID                               : 2\nFormat                           : AAC\nFormat/Info                      : Advanced Audio Codec\nFormat version                   : Version 4\nFormat profile                   : LC\nFormat settings, SBR             : No\nCodec ID                         : 40\nDuration                         : 1h 52mn\nBit rate mode                    : Variable\nBit rate                         : 80.3 Kbps\nMaximum bit rate                 : 116 Kbps\nChannel(s)                       : 2 channels\nChannel positions                : L R\nSampling rate                    : 44.1 KHz\nResolution                       : 16 bits\nStream size                      : 64.8 MiB (5%)\nLanguage                         : English\nEncoded date                     : UTC 2011-07-11 19:49:51\nTagged date                      : UTC 2011-07-11 21:03:30\n\nText #1\nID                               : 3\nFormat                           : VobSub\nCodec ID                         : subp\nCodec ID/Info                    : The same subtitle format used on DVDs\nDuration                         : 1h 51mn\nBit rate mode                    : Variable\nBit rate                         : 5 028 bps\nStream size                      : 4.02 MiB (0%)\nTitle                            : French\nLanguage                         : French\nEncoded date                     : UTC 2011-07-11 19:50:57\nTagged date                      : UTC 2011-07-11 21:03:30\n\nText #2\nID                               : 4\nFormat                           : VobSub\nCodec ID                         : subp\nCodec ID/Info                    : The same subtitle format used on DVDs\nDuration                         : 1h 51mn\nBit rate mode                    : Variable\nBit rate                         : 5 885 bps\nStream size                      : 4.71 MiB (0%)\nTitle                            : English\nLanguage                         : English\nEncoded date                     : UTC 2011-07-11 19:51:21\nTagged date                      : UTC 2011-07-11 21:03:30","torrent":{"xt":"urn:btih:f075e5dcda0a6c30ee6b8f692f64b78873840e8e","amp;dn":"Portrait+in+Black+1960+DVDRip+Eng+Subs+Lana+Turner+Anthony+Quinn","amp;tr":["udp%3A%2F%2Ftracker.openbittorrent.com%3A80","udp%3A%2F%2Fopen.demonii.com%3A1337","udp%3A%2F%2Ftracker.coppersurfer.tk%3A6969","udp%3A%2F%2Fexodus.desync.com%3A6969"],"infoHash":"f075e5dcda0a6c30ee6b8f692f64b78873840e8e","infoHashBuffer":{"type":"Buffer","data":[240,117,229,220,218,10,108,48,238,107,143,105,47,100,183,136,115,132,14,142]},"announce":[],"urlList":[]}}